<svg width="500" height="512" viewBox="0 0 500 512" fill="none" xmlns="http://www.w3.org/2000/svg">
<path d="M487.607 428.279L207.482 153.388C211.529 146.247 214.841 138.779 217.185 131.075C217.435 128.606 217.935 126.044 218.841 123.434C219.325 121.965 219.732 120.465 220.138 118.981C226.544 84.3251 216.372 47.2151 189.575 20.4181C181.106 11.9491 171.591 5.15209 161.466 -0.00390625C160.966 -0.00390625 160.466 0.0590937 159.982 0.168094L150.982 2.37109C149.294 2.80909 147.841 3.87109 146.966 5.37109C146.091 6.85509 145.857 8.65209 146.325 10.3241L165.669 79.7931C166.388 82.3871 165.419 85.1371 163.247 86.7151L119.294 118.637C117.95 119.59 116.294 120.012 114.653 119.793L67.95 113.355C65.403 113.011 63.325 111.199 62.637 108.73L42.217 35.3571C41.279 32.0291 37.873 30.0131 34.514 30.8411L22.701 33.7321C22.092 33.8881 21.545 34.2011 20.998 34.5291C7.43605 53.5441 0.592047 75.8731 0.498047 98.2321C0.701047 126.295 11.451 154.295 32.857 175.701C58.685 201.514 94.045 211.639 127.623 206.904C132.467 206.201 136.889 205.716 140.951 205.435C144.826 204.372 148.639 202.982 152.42 201.466C199.389 249.029 430.186 485.701 430.186 485.701C446.045 501.56 471.749 501.56 487.608 485.701C503.467 469.842 503.467 444.139 487.607 428.279ZM473.248 471.342C465.326 479.28 452.482 479.28 444.545 471.342C436.607 463.42 436.607 450.561 444.545 442.623C452.483 434.701 465.326 434.701 473.248 442.623C481.186 450.561 481.186 463.42 473.248 471.342Z" fill="white"/>
<path d="M400.264 136.31L445.795 124.763L489.623 48.2161L468.389 28.0761L447.17 7.93506L373.029 55.7161L363.889 101.763L285.186 184.716L320.998 219.841L400.264 136.31Z" fill="white"/>
<path d="M172.093 280.373C163.03 288.217 150.187 278.498 133.374 296.232L22.2487 413.326C0.0297031 436.732 0.998703 473.732 24.4047 495.951C47.8107 518.17 84.7957 517.201 107.014 493.795L218.155 376.67C234.968 358.951 224.608 346.654 231.952 337.186C233.452 335.233 234.827 333.889 236.202 332.873C215.171 311.342 195.046 290.748 177.624 272.951C176.89 275.42 175.218 277.686 172.093 280.373Z" fill="white"/>
</svg>
